<?xml version="1.0" standalone="no"?>
<!DOCTYPE svg PUBLIC "-//W3C//DTD SVG 1.1//EN" "http://www.w3.org/Graphics/SVG/1.1/DTD/svg11.dtd" >
<svg xmlns="http://www.w3.org/2000/svg">
<metadata></metadata>
<defs>
<font id="tw_cen_mtextrabold" horiz-adv-x="1236" >
<font-face units-per-em="2048" ascent="1638" descent="-410" />
<missing-glyph horiz-adv-x="681" />
<glyph horiz-adv-x="0" />
<glyph unicode="&#xd;" horiz-adv-x="681" />
<glyph unicode=" "  horiz-adv-x="681" />
<glyph unicode="&#x09;" horiz-adv-x="681" />
<glyph unicode="&#xa0;" horiz-adv-x="681" />
<glyph unicode="!" horiz-adv-x="681" d="M123 186q0 90 63.5 153.5t153.5 63.5t153.5 -63.5t63.5 -153.5t-63.5 -153.5t-153.5 -63.5t-153.5 64.5t-63.5 152.5zM158 483v854h356v-854h-356z" />
<glyph unicode="&#x22;" horiz-adv-x="1024" d="M49 1223v243h406v-243l-66 -295h-274zM569 1223v243h406v-243l-64 -295h-276z" />
<glyph unicode="#" horiz-adv-x="1368" d="M74 328v215h205l55 276h-260v215h301l84 375h215l-82 -375h328l79 375h218l-82 -375h159v-215h-200l-58 -276h258v-215h-299l-80 -371h-217l82 371h-331l-78 -371h-217l79 371h-159zM494 545h327l58 274h-330z" />
<glyph unicode="$" horiz-adv-x="1366" d="M55 127l121 240l47 -23q154 -76 250 -98q55 -14 115 -19v312q-127 14 -201 36q-96 27 -168 99q-106 111 -106 258q0 123 68.5 224t187.5 157q80 41 219 53v131h166v-127q123 -2 227 -31q76 -16 154 -57l-113 -256q-98 45 -180 66q-39 8 -88 12v-295q172 -18 274 -68 q86 -43 131 -96q98 -104 98 -258q0 -131 -69.5 -232.5t-194.5 -152.5q-90 -37 -241 -43v-297h-162v295q-121 10 -207 33q-74 18 -123 35q-98 35 -205 102zM418 969q0 -59 45 -98.5t127 -49.5v277q-80 -8 -126 -43t-46 -86zM754 223q207 18 207 137q0 59 -49 95.5t-158 56.5 v-289z" />
<glyph unicode="%" horiz-adv-x="2027" d="M35 1024q0 219 96.5 338t276.5 119q158 0 251 -95q119 -119 119 -376q0 -254 -121 -369q-98 -98 -251 -98q-156 0 -261 104q-111 111 -110 377zM289 1010q0 -139 27.5 -202t89.5 -63q117 0 116 271q1 264 -114 264q-63 0 -91 -62.5t-28 -207.5zM401 -166l994 1649h221 l-985 -1649h-230zM1247 317q0 215 97.5 336t269.5 121h4q371 -12 371 -461q0 -266 -119 -383q-100 -96 -240 -96q-164 0 -268 100q-61 63 -88 151.5t-27 231.5zM1503 336q0 -166 24.5 -232.5t88.5 -66.5q121 0 121 276q0 258 -119 258q-115 0 -115 -235z" />
<glyph unicode="&#x26;" horiz-adv-x="1579" d="M53 373q0 129 115 237q70 70 197 123q-119 158 -119 279q0 154 129 257t319 103q182 0 294 -97t112 -259q0 -217 -244 -340l168 -168q117 106 162 151q45 49 59 66l203 -182l-92 -97l-109 -104l-30 -27l118 -114q25 -27 109 -103l104 -100h-461l-126 115 q-111 -66 -181 -97q-123 -53 -252 -53q-205 0 -340 117t-135 293zM430 397q0 -49 45 -87t105 -38q85 0 165 47l-210 205q-104 -53 -105 -127zM578 1020q0 -62 84 -148q74 39 104.5 73t30.5 75q0 45 -33 79t-78 34t-76.5 -33t-31.5 -80z" />
<glyph unicode="'" horiz-adv-x="569" d="M82 1223v243h405v-243l-63 -295h-277z" />
<glyph unicode="(" horiz-adv-x="681" d="M78 516q0 326 170 596q76 123 217 270l170 -215q-104 -117 -148.5 -181t-83.5 -161q-55 -139 -55 -321q0 -242 111 -430q55 -97 174 -234l-166 -209q-133 135 -192.5 219t-112.5 209q-84 205 -84 457z" />
<glyph unicode=")" horiz-adv-x="681" d="M43 -158q104 117 150.5 184.5t82.5 161.5q55 147 56 324q0 252 -123 455q-51 81 -164 204l168 209q129 -127 207 -245q182 -285 182 -633q0 -342 -180 -621q-78 -117 -211 -250z" />
<glyph unicode="*" horiz-adv-x="933" d="M61 717q0 45 31 76q33 35 135 49q92 10 146 37l2 26q-66 23 -158 37q-88 12 -121 45q-33 35 -33 74q0 43 32 73.5t75 30.5q47 0 92 -41l35 -45q43 -62 111 -121l24 17q-2 49 -41 137q-33 74 -37 117q4 49 34 79.5t75 30.5t74.5 -32.5t29.5 -81.5q0 -29 -32 -107 q-37 -90 -39 -145l24 -15q68 55 113 123q27 35 39 47q41 39 88 39q43 0 72.5 -30.5t29.5 -73.5q0 -68 -59 -96q-41 -18 -119 -29q-92 -12 -131 -35v-31q63 -23 154 -34q55 -6 77.5 -14.5t46.5 -30.5q33 -35 33 -74q0 -41 -32.5 -74t-73.5 -33q-49 0 -88 39l-43 56 q-59 76 -107 110l-26 -12q14 -74 47 -160q27 -61 26 -98q-4 -47 -30.5 -75t-71.5 -28q-51 0 -80 31t-29 84q0 31 31 100q39 86 39 146l-23 14q-49 -39 -108 -117q-29 -41 -51 -59q-39 -29 -80 -29t-72 31t-31 72z" />
<glyph unicode="+" horiz-adv-x="1366" d="M121 557v248h438v440h248v-440h438v-248h-438v-436h-248v436h-438z" />
<glyph unicode="," horiz-adv-x="681" d="M43 -229l209 647h377l-314 -647h-272z" />
<glyph unicode="-" horiz-adv-x="897" d="M109 293v338h677v-338h-677z" />
<glyph unicode="." horiz-adv-x="681" d="M100 209q0 100 70 170t170 70q98 0 169 -70t71 -170q0 -98 -71 -169t-169 -71q-100 0 -170 71t-70 169z" />
<glyph unicode="/" horiz-adv-x="788" d="M66 -377l499 1790h187l-504 -1790h-182z" />
<glyph unicode="0" horiz-adv-x="1366" d="M37 690q0 109 34.5 227.5t94.5 206.5q90 135 248 203q127 51 260 51h10q285 -16 438 -170q90 -92 143.5 -232t53.5 -290q0 -168 -54.5 -316.5t-148.5 -238.5q-74 -74 -192.5 -118t-241.5 -44q-133 0 -253 45t-196 125q-90 94 -143 241.5t-53 309.5zM422 678 q0 -172 72.5 -280.5t187.5 -108.5t186.5 108.5t71.5 282.5q0 166 -73.5 272.5t-188.5 106.5q-113 0 -184.5 -106.5t-71.5 -274.5z" />
<glyph unicode="1" horiz-adv-x="1366" d="M293 1016v319h590v-1335h-353v1016h-237z" />
<glyph unicode="2" horiz-adv-x="1366" d="M119 846q10 145 45 227q39 92 102 152q152 147 404 147q205 0 361.5 -141t156.5 -328q0 -147 -88 -270q-72 -98 -215 -242l-72 -72h401v-319h-1042l203 225q426 449 469 563q12 35 12 74q0 84 -61.5 139.5t-153.5 55.5q-188 0 -213 -211h-309z" />
<glyph unicode="3" horiz-adv-x="1366" d="M135 465h371v-4q0 -84 51 -137.5t129 -53.5q74 0 127 54.5t53 130t-49 122t-131 46.5q-35 0 -57 -2v229h33q152 0 151 131q0 49 -39 87t-90 38q-82 0 -141 -117h-340q16 88 43 137q37 66 94 121q143 127 348 127q190 0 329.5 -101.5t139.5 -240.5q0 -154 -151 -280 q119 -66 171 -146t52 -198q0 -205 -139.5 -325t-376.5 -120q-190 0 -333.5 84t-207.5 234q-33 72 -37 184z" />
<glyph unicode="4" horiz-adv-x="1366" d="M80 283v268l506 784h458v-784h175v-268h-177v-283h-313v283h-649zM395 549h336v518h-4z" />
<glyph unicode="5" horiz-adv-x="1366" d="M168 82l35 362q236 -160 391 -159q92 0 155.5 59t63.5 148q0 86 -82 143t-205 57q-78 0 -243 -39q-10 -4 -24.5 -7t-25.5 -5l121 688h713v-266h-436l-25 -141q45 4 51 4q14 2 39 2q219 0 358.5 -120t139.5 -308q0 -213 -177 -374t-413 -161q-123 0 -282 51 q-86 33 -154 66z" />
<glyph unicode="6" horiz-adv-x="1366" d="M111 487q0 174 118 369q80 135 135.5 210.5t223.5 276.5h418l-168 -198l-121 -154l-39 -49q12 2 55 8q14 2 39 2q195 0 333 -142t138 -343q0 -211 -158.5 -354.5t-390.5 -143.5q-254 0 -418.5 146.5t-164.5 371.5zM494 469q0 -78 54 -134t130 -56q78 0 132 55t54 137 q0 78 -54 135.5t-126 57.5q-78 0 -134 -57.5t-56 -137.5z" />
<glyph unicode="7" horiz-adv-x="1366" d="M119 1020v317h1214l-741 -1337h-408l566 1020h-631z" />
<glyph unicode="8" horiz-adv-x="1366" d="M166 373q0 141 102 250q52 55 154 106q-96 29 -152.5 102.5t-56.5 172.5q0 166 130 269t337 103q203 0 335 -103.5t132 -260.5q0 -193 -209 -283q256 -129 256 -362q0 -172 -141.5 -288t-352.5 -116q-244 0 -389 111.5t-145 298.5zM524 406q0 -66 47 -115t109 -49 q66 0 112 49t46 121q0 68 -46.5 114.5t-111.5 46.5h-2q-66 -2 -110 -50t-44 -117zM537 989q0 -63 40.5 -103t106.5 -40q59 0 101 39t42 96q0 66 -41 109t-102 43h-2q-63 -2 -104 -43t-41 -101z" />
<glyph unicode="9" horiz-adv-x="1366" d="M113 877q0 211 162.5 356t398.5 145q244 0 408.5 -147.5t164.5 -364.5q0 -195 -117 -389q-74 -125 -132 -202.5t-220 -274.5h-416l39 47l168 201l121 155q-74 -14 -110 -14q-193 0 -330 143.5t-137 344.5zM494 870.5q0 -77.5 56 -134t134 -56.5q76 0 130 56.5t54 131.5 q0 78 -55 137.5t-129 59.5q-76 0 -133 -58.5t-57 -136z" />
<glyph unicode=":" horiz-adv-x="681" d="M123 186q0 90 63.5 153.5t153.5 63.5t153.5 -63.5t63.5 -153.5t-63.5 -152.5t-153.5 -62.5t-153.5 63.5t-63.5 151.5zM123 737q0 90 63.5 153.5t153.5 63.5t153.5 -63.5t63.5 -153.5t-63.5 -154.5t-153.5 -64.5t-153.5 64.5t-63.5 154.5z" />
<glyph unicode=";" horiz-adv-x="681" d="M33 -279l205 650h380l-307 -650h-278zM125 737q0 90 63.5 153.5t153.5 63.5t153.5 -63.5t63.5 -153.5q0 -88 -63.5 -151.5t-153.5 -63.5t-153.5 63.5t-63.5 151.5z" />
<glyph unicode="&#x3c;" horiz-adv-x="1366" d="M121 569v224l1124 467v-267l-784 -311l784 -311v-269z" />
<glyph unicode="=" horiz-adv-x="1366" d="M121 317v248h1124v-248h-1124zM121 799v248h1124v-248h-1124z" />
<glyph unicode="&#x3e;" horiz-adv-x="1366" d="M121 102v269l784 311l-784 311v267l1124 -465v-224z" />
<glyph unicode="?" horiz-adv-x="1024" d="M39 936q6 106 33 170q33 78 86 131q135 139 368 139q184 0 319.5 -126t135.5 -298q0 -135 -77 -233t-216 -139v-119h-354v336q152 4 222.5 46t70.5 128q0 47 -35 86t-80 39q-113 0 -115 -160h-358zM293 188.5q0 90.5 64.5 154t152.5 63.5q90 0 153.5 -63.5t63.5 -154 t-63.5 -154t-153.5 -63.5q-88 0 -152.5 63.5t-64.5 154z" />
<glyph unicode="@" horiz-adv-x="1515" d="M-6 518q0 197 72.5 377t199.5 299q213 201 543 201q293 0 481 -168q229 -207 230 -549q0 -348 -238 -545q-143 -117 -276 -117q-102 0 -140 68q-14 29 -20 51q-86 -86 -160 -108q-45 -10 -80 -11q-145 0 -235 119t-90 309q0 262 127 451.5t303 189.5q121 0 198 -100 q16 -20 35 -47l17 113h196l-125 -791q-4 -16 -4 -37q0 -37 43 -37q72 0 158 90q139 152 139 410q0 254 -151.5 406.5t-405.5 152.5q-295 0 -479.5 -201.5t-184.5 -525.5q0 -313 177.5 -506.5t463.5 -193.5q270 0 482 151l45 37h205q-88 -106 -151.5 -154.5t-178.5 -99.5 q-186 -82 -393 -82q-350 0 -576.5 238.5t-226.5 609.5zM492 395q0 -106 39.5 -169.5t107.5 -63.5q115 0 170 145q76 209 76 414q0 94 -38 149.5t-104 55.5q-92 0 -149 -92q-45 -76 -73.5 -197t-28.5 -242z" />
<glyph unicode="A" horiz-adv-x="1472" d="M29 0l469 1335h467l469 -1335h-334l-84 236h-570l-81 -236h-336zM537 498h389l-193 551h-4z" />
<glyph unicode="B" d="M121 0v1335h577q143 0 242.5 -98t99.5 -242q0 -162 -139 -266q88 -43 139 -94q106 -113 107 -262q0 -174 -109.5 -273.5t-300.5 -99.5h-616zM477 281h117q90 0 138 33.5t48 97.5q0 57 -44 95t-111 38h-148v-264zM477 825h96q57 0 95.5 33t38.5 82q0 53 -36 84t-100 31 h-94v-230z" />
<glyph unicode="C" d="M113 657q0 317 194.5 517t503.5 200q166 0 332 -80v-368q-164 104 -316 104q-150 0 -244 -100.5t-94 -259.5q0 -156 88.5 -249t237.5 -93q138 0 328 98v-365q-203 -98 -350 -98q-291 0 -485.5 197.5t-194.5 496.5z" />
<glyph unicode="D" horiz-adv-x="1366" d="M113 0v1335h575q260 0 429 -186t169 -471q0 -309 -171 -493.5t-458 -184.5h-544zM469 319h66q207 0 289.5 77t82.5 270q0 186 -83 270t-269 84h-86v-701z" />
<glyph unicode="E" horiz-adv-x="1024" d="M129 0v1335h803v-303h-447v-209h385v-305h-385v-211h461v-307h-817z" />
<glyph unicode="F" horiz-adv-x="1024" d="M129 0v1335h795v-305h-437v-192h381v-308h-381v-530h-358z" />
<glyph unicode="G" horiz-adv-x="1579" d="M92 678q0 319 201 507.5t541 188.5q254 0 426 -133q72 -55 147 -164l-324 -159q-103 167 -268 167h-2q-156 0 -250 -111.5t-94 -298t102.5 -308t257.5 -121.5q131 0 208 65.5t93 186.5h-327v268h674v-207q0 -104 -46.5 -216t-117.5 -185q-88 -88 -229.5 -141.5 t-288.5 -53.5q-297 0 -500 199q-203 197 -203 516z" />
<glyph unicode="H" horiz-adv-x="1472" d="M131 0v1335h356v-491h500v491h356v-1335h-356v539h-500v-539h-356z" />
<glyph unicode="I" horiz-adv-x="681" d="M164 0v1335h358v-1335h-358z" />
<glyph unicode="J" horiz-adv-x="1024" d="M27 162l225 209q113 -104 178 -105q104 0 105 119v950h356v-905q0 -244 -103 -340q-131 -127 -333 -127q-139 0 -252 55q-59 31 -94 57.5t-82 86.5z" />
<glyph unicode="K" horiz-adv-x="1366" d="M121 0v1335h356v-704h4l441 704h374l-444 -702l487 -633h-399l-459 602h-4v-602h-356z" />
<glyph unicode="L" horiz-adv-x="1024" d="M127 0v1335h356v-979h465v-356h-821z" />
<glyph unicode="M" horiz-adv-x="1685" d="M39 0l176 1335h377l252 -774h4l252 774h373l174 -1335h-318l-110 846h-5l-274 -846h-184l-283 864h-4l-111 -864h-319z" />
<glyph unicode="N" horiz-adv-x="1579" d="M117 0v1335h352l623 -815h4v815h358v-1335h-354l-621 811h-4v-811h-358z" />
<glyph unicode="O" horiz-adv-x="1685" d="M98 670q0 311 207 507.5t533 196.5h16q332 -12 531.5 -201.5t199.5 -492.5q0 -319 -209 -518t-549 -199q-319 0 -524 198.5t-205 508.5zM473 680q0 -160 106.5 -268.5t260.5 -108.5q152 0 259 107.5t107 259.5q0 154 -108 261t-262 107q-150 0 -256.5 -105.5 t-106.5 -252.5z" />
<glyph unicode="P" d="M113 0v1335h606q205 0 316.5 -113.5t111.5 -322.5q0 -219 -111.5 -334.5t-324.5 -115.5h-242v-449h-356zM469 758h141q72 0 117 36.5t45 96.5q0 63 -39 105t-94 42h-170v-280z" />
<glyph unicode="Q" horiz-adv-x="1685" d="M96 670q0 319 206 511.5t552 192.5q147 0 291.5 -55t240.5 -150q195 -193 195 -493q0 -139 -41 -258q-35 -102 -115 -201l185 -190l-271 -101l-125 125q-190 -88 -387 -88q-328 0 -540 213q-190 193 -191 494zM469 672q0 -154 108.5 -262.5t264.5 -108.5q45 0 114 21 l-176 180l277 98l100 -104q47 92 47 172q0 156 -106.5 263t-263.5 107q-152 0 -258.5 -107.5t-106.5 -258.5z" />
<glyph unicode="R" d="M117 0v1335h538q209 0 335 -110.5t126 -296.5q0 -133 -79 -238.5t-210 -144.5l379 -545h-383l-319 453h-31v-453h-356zM473 733h86q86 0 135 44t49 122q0 72 -50 114t-132 42h-88v-322z" />
<glyph unicode="S" horiz-adv-x="1130" d="M43 158l160 274l35 -35q88 -80 146 -111.5t122 -31.5q86 0 137 41t51 106.5t-47 112.5q-39 39 -178 76q-166 39 -242 98l-41 35q-86 92 -86 250q0 186 133.5 293.5t364.5 107.5q236 0 387 -125l-151 -270q-143 125 -236 125q-53 0 -90 -35t-37 -84q0 -39 29 -67 q33 -29 137 -52q217 -45 319.5 -146.5t102.5 -270.5q0 -213 -135.5 -349.5t-348.5 -136.5q-199 0 -360 84q-80 41 -172 111z" />
<glyph unicode="T" horiz-adv-x="1024" d="M31 1020v315h958v-315h-299v-1020h-356v1020h-303z" />
<glyph unicode="U" horiz-adv-x="1366" d="M90 510v825h356v-764q0 -139 59.5 -212.5t172.5 -73.5q102 0 164.5 71.5t62.5 190.5v788h357v-786q0 -262 -160 -424t-418 -162q-260 0 -427 153.5t-167 393.5z" />
<glyph unicode="V" horiz-adv-x="1472" d="M49 1335h340l344 -803l340 803h344l-563 -1335h-244z" />
<glyph unicode="W" horiz-adv-x="2027" d="M14 1335h336l287 -792h4l262 792h205l264 -792h4l285 792h338l-483 -1335h-238l-270 817h-4l-267 -817h-237z" />
<glyph unicode="X" horiz-adv-x="1472" d="M29 0l508 721l-439 614h387l246 -342l244 342h389l-438 -616l512 -719h-387l-320 446l-313 -446h-389z" />
<glyph unicode="Y" d="M14 1335h363l237 -428l240 428h358l-419 -764v-571h-357v571z" />
<glyph unicode="Z" d="M12 0l623 1034h-543v301h1094l-619 -1030h633v-305h-1188z" />
<glyph unicode="[" horiz-adv-x="681" d="M82 -330v1663h549v-203h-299v-1253h295v-207h-545z" />
<glyph unicode="\" horiz-adv-x="788" d="M39 1413h184l504 -1790h-186z" />
<glyph unicode="]" horiz-adv-x="681" d="M41 -117h297v1247h-297v207h549v-1665h-549v211z" />
<glyph unicode="^" horiz-adv-x="1351" d="M129 678l408 813h278l408 -813h-353l-192 491l-195 -491h-354z" />
<glyph unicode="_" horiz-adv-x="1024" d="M-14 -152h1052v-102h-1052v102z" />
<glyph unicode="`" horiz-adv-x="681" d="M0 1346h348l164 -299h-193z" />
<glyph unicode="a" d="M49 467q0 201 126 341t306 140q168 0 301 -141v113h338v-920h-338v115q-131 -143 -299 -144q-186 0 -310 141.5t-124 354.5zM408 461q0 -86 60 -145.5t146 -59.5t146.5 60.5t60.5 144.5q0 86 -60.5 146.5t-146.5 60.5q-84 0 -145 -61.5t-61 -145.5z" />
<glyph unicode="b" d="M109 0v1335h335v-534q129 147 306 147q172 0 301 -146.5t129 -342.5q0 -201 -127 -343.5t-308 -142.5q-168 0 -301 140v-113h-335zM406 461q0 -86 60 -145.5t148 -59.5q84 0 146.5 60.5t62.5 144.5t-62.5 146.5t-146.5 62.5q-86 0 -147 -61.5t-61 -147.5z" />
<glyph unicode="c" horiz-adv-x="897" d="M68 453q0 152 77.5 276.5t206.5 177.5q94 41 228 41q119 0 243 -47v-305l-18 6q-111 33 -178 33q-84 0 -141.5 -49t-57.5 -119q0 -72 57.5 -122t139 -50t198.5 51v-301q-150 -74 -268 -74q-223 0 -355 131t-132 351z" />
<glyph unicode="d" d="M51 477q0 190 128 331.5t298 141.5q178 0 307 -147v532h338v-1335h-336v127q-135 -156 -301 -156q-184 0 -309 146.5t-125 359.5zM412 463q0 -84 59 -143.5t143 -59.5t144.5 58.5t60.5 140.5q0 84 -61.5 146.5t-143.5 62.5q-84 0 -143 -59.5t-59 -145.5z" />
<glyph unicode="e" horiz-adv-x="1241" d="M72 465q0 225 150.5 355t410.5 130q164 0 292 -76.5t179 -205.5q37 -90 37 -240v-27h-742q6 -98 64.5 -159.5t146.5 -61.5q113 1 168 107h355q-29 -86 -80 -144q-158 -174 -432 -174q-256 0 -402.5 133.5t-146.5 362.5zM408 590h405q-10 74 -66.5 124t-132.5 50 q-84 0 -141 -48t-65 -126z" />
<glyph unicode="f" horiz-adv-x="788" d="M27 616v267h161v106q0 162 100.5 254t276.5 92q90 0 172 -26v-246q-78 31 -119 31q-92 0 -92 -113v-96h211v-269h-211v-616h-336v616h-163z" />
<glyph unicode="g" d="M68 485q0 205 116.5 334t298.5 129q166 0 303 -145v117h340v-897q0 -74 -26.5 -147t-69.5 -114q-68 -66 -191.5 -103.5t-271.5 -37.5q-287 0 -420 158q-47 53 -73 143l346 23q63 -125 188 -125q72 0 125 51t53 119v192h-4q-116 -149 -299 -149h-2q-180 0 -296.5 127 t-116.5 325zM428 487q0 -84 58.5 -142t140.5 -58t136 59.5t54 145.5q0 82 -57.5 137t-143.5 55q-80 0 -134 -56.5t-54 -140.5z" />
<glyph unicode="h" d="M104 0v1335h340v-544q135 88 222.5 122.5t169.5 34.5q119 0 208 -86t89 -200v-662h-340v528q0 70 -46.5 113t-117.5 43q-80 0 -132.5 -46t-52.5 -116v-522h-340z" />
<glyph unicode="i" horiz-adv-x="555" d="M96 1186q0 76 53 129t127 53q76 0 129.5 -53t53.5 -129t-53.5 -128t-129 -52t-128 52t-52.5 128zM109 0v920h337v-920h-337z" />
<glyph unicode="j" horiz-adv-x="555" d="M96 1188q0 74 52.5 127t128 53t128 -53t52.5 -127q0 -76 -52.5 -129t-128 -53t-128 53t-52.5 129zM109 -379v1299h337v-1299h-337z" />
<glyph unicode="k" d="M104 0v1335h340v-796h5l305 381h385l-365 -451l434 -469h-405l-359 385v-385h-340z" />
<glyph unicode="l" horiz-adv-x="555" d="M109 0v1335h337v-1335h-337z" />
<glyph unicode="m" horiz-adv-x="1685" d="M70 0v920h338v-113q63 63 96 86q80 55 205 55q180 0 274 -153q104 96 180 125q68 28 152 28h6q131 0 211 -82t80 -217v-649h-340v553q0 59 -36 100t-89 41q-59 0 -97 -42t-38 -107v-545h-340v532q0 70 -38 116t-95.5 46t-93 -39t-35.5 -98v-557h-340z" />
<glyph unicode="n" d="M100 0v920h338v-123q226 157 389 157h2q123 0 209 -87t86 -210v-657h-338v528q0 68 -47 113t-118 45q-84 0 -133.5 -47t-49.5 -127v-512h-338z" />
<glyph unicode="o" d="M76 444q0 215 152.5 360.5t377.5 145.5h12q233 -6 386 -144t153 -345q0 -205 -155.5 -348.5t-381 -143.5t-385 139.5t-159.5 335.5zM416 459q0 -82 59.5 -141.5t138.5 -59.5q86 0 144.5 60.5t58.5 148.5q0 78 -59 137.5t-137 59.5q-84 0 -144.5 -59.5t-60.5 -145.5z" />
<glyph unicode="p" d="M109 -379v1299h337v-119q70 80 139.5 113.5t166.5 33.5q176 0 303 -143t127 -342q0 -205 -125 -347.5t-305 -142.5q-88 0 -158 35t-148 119v-506h-337zM418 463q0 -86 58.5 -146.5t141.5 -60.5q82 0 142.5 60.5t60.5 142.5q0 84 -60.5 144.5t-142 60.5t-141 -59.5 t-59.5 -141.5z" />
<glyph unicode="q" d="M55 461q0 205 126 346t308 141q186 0 295 -162h4v134h338v-1299h-338v502q-127 -150 -294 -150q-182 0 -310.5 142.5t-128.5 345.5zM416 461q0 -84 59.5 -142.5t143 -58.5t143 59.5t59.5 147.5q0 78 -59 135t-139 57q-88 0 -147.5 -57t-59.5 -141z" />
<glyph unicode="r" horiz-adv-x="897" d="M109 0v920h337v-136h5q68 88 124 123q72 43 164 43q47 0 113 -12v-344q-105 24 -162 24h-4q-115 0 -177.5 -49t-62.5 -139v-430h-337z" />
<glyph unicode="s" horiz-adv-x="897" d="M20 90l117 215l35 -14q172 -76 246 -76q90 0 90 57q0 51 -139 93q-106 33 -179 73q-27 14 -59 45q-53 59 -53 144q0 150 108.5 236.5t294.5 86.5q147 0 281 -59l-84 -219q-6 2 -15.5 4t-15.5 4q-106 31 -172 33q-74 0 -74 -51q0 -29 26 -45.5t93 -30.5q94 -20 166 -58 q23 -12 51 -39q78 -78 78 -182q0 -143 -115.5 -239.5t-289.5 -96.5q-182 0 -390 119z" />
<glyph unicode="t" horiz-adv-x="788" d="M39 653v267h180v243h340v-243h184v-267h-184v-653h-340v653h-180z" />
<glyph unicode="u" horiz-adv-x="1130" d="M70 383v537h340v-517q0 -131 157 -131q156 0 156 129v519h338v-549q0 -193 -133 -296.5t-381 -103.5q-219 0 -348 112t-129 300z" />
<glyph unicode="v" horiz-adv-x="1130" d="M23 920h327l215 -461l211 461h328l-422 -920h-238z" />
<glyph unicode="w" horiz-adv-x="1685" d="M20 920h324l215 -476l209 476h139l213 -476l211 476h326l-408 -920h-217l-190 430l-193 -430h-217z" />
<glyph unicode="x" horiz-adv-x="1366" d="M49 0l426 504l-350 416h389l156 -183l153 183h389l-348 -416l426 -504h-387l-233 272l-230 -272h-391z" />
<glyph unicode="y" d="M12 920h344l258 -478l256 478h342l-694 -1299h-344l268 496z" />
<glyph unicode="z" horiz-adv-x="1024" d="M37 0l473 666h-375v254h869l-472 -664h439v-256h-934z" />
<glyph unicode="{" horiz-adv-x="796" d="M63 387v240q80 2 122 26.5t67 81.5q31 76 31 250v16v19q0 201 34 280q29 70 91 107q57 35 114.5 47t171.5 12h54v-239h-13q-121 0 -155.5 -25.5t-36.5 -118.5q0 -47 -4 -120q-2 -106 -7 -164q-6 -57 -24 -115q-20 -59 -53 -98t-99 -80q111 -63 150 -178 q18 -53 23.5 -95.5t9.5 -181.5q2 -43 3 -81t1 -40q0 -68 20.5 -98.5t67.5 -40.5q25 -6 102 -6h15v-240h-54q-117 0 -176 12.5t-110 47.5q-61 39 -93 108q-33 78 -32 279v18v17q0 178 -31 249q-29 61 -76 86q-41 21 -113 25z" />
<glyph unicode="|" horiz-adv-x="1251" d="M502 -276v1701h250v-1701h-250z" />
<glyph unicode="}" horiz-adv-x="796" d="M49 -219h14q115 0 154 31q37 29 37 114q0 2 1 40t3 81q4 121 8 162q4 59 25 115q41 117 149 180q-66 41 -98.5 80t-52.5 98q-25 76 -31 276q-4 74 -4 121q-2 92 -37 119t-156 27h-12v239h53q113 0 172.5 -12t114.5 -47q66 -47 90 -109q35 -84 35 -280v-17v-16 q0 -180 31 -250q27 -59 76 -86q34 -20 112 -24v-240q-82 -4 -123 -28.5t-65 -82.5q-31 -74 -31 -247v-17v-18q0 -199 -33 -281q-27 -66 -92 -108q-57 -35 -114.5 -47.5t-172.5 -12.5h-53v240z" />
<glyph unicode="~" horiz-adv-x="1343" d="M111 526v256q162 141 327 142q100 0 271 -84q147 -74 227 -74q119 0 254 113q14 11 43 36v-253q-162 -143 -320 -144q-96 0 -292 94q-129 66 -203 66q-150 0 -307 -152z" />
<glyph unicode="&#xa1;" horiz-adv-x="681" d="M123 924q0 88 63.5 151.5t149.5 63.5h4q92 -4 153.5 -65.5t61.5 -149.5t-62.5 -151.5t-152.5 -63.5t-153.5 63.5t-63.5 151.5zM162 -229v854h356v-854h-356z" />
<glyph unicode="&#xa2;" horiz-adv-x="897" d="M72 459q0 102 42 201.5t111 166.5q131 125 359 125q6 0 27.5 -1t37.5 -1l74 269h127l-82 -297l12 -4q23 -4 41 -17v-303q-6 2 -13 4t-13 4q-74 23 -105 25l-92 -332q8 0 18.5 -1t14.5 -1q76 0 190 51v-299q-98 -47 -157 -61q-53 -12 -140 -13h-14l-88 -325h-125l94 350 q-102 33 -166 88q-154 129 -153 371zM430 465q0 -64 57 -113l74 277q-131 -47 -131 -164z" />
<glyph unicode="&#xa3;" horiz-adv-x="1376" d="M37 236q0 106 66.5 176.5t168.5 70.5q55 0 162 -34q18 -8 23 -9q-2 100 -54 185h-286v225h207q-14 80 -15 127q0 180 126 285.5t339 105.5q156 0 263.5 -60.5t150.5 -170.5q25 -59 26 -158h-340q2 8 3 20q0 57 -31 93t-80 36q-53 0 -85 -27.5t-32 -74.5q0 -25 33 -143 l4 -17l6 -16h236v-225h-187v-50q0 -117 -32 -229q123 -47 178 -47t79.5 44t34.5 161h318q-2 -174 -43 -279q-35 -90 -98 -157q-102 -109 -246 -109q-57 0 -108.5 26.5t-157.5 108.5q-4 4 -11.5 10.5t-11.5 8.5l-22 16q-121 -170 -297 -170q-131 0 -209 75t-78 202zM236 215 q0 -80 69 -80q45 0 82 31t55 82q-92 43 -129 43q-78 0 -77 -76z" />
<glyph unicode="&#xa4;" horiz-adv-x="1433" d="M143 305l133 133q-68 117 -67 242q0 117 67 244l-133 135l160 164l135 -138q121 68 244 68q117 0 244 -68l135 138l162 -164l-136 -135q68 -115 68 -244q0 -131 -68 -242l136 -133l-162 -162l-133 133q-119 -70 -246 -69q-129 0 -244 67l-131 -131zM438 680 q0 -102 72 -173t172 -71q102 0 174 72t72 172q0 102 -73 174t-173 72t-172 -72t-72 -174z" />
<glyph unicode="&#xa5;" d="M31 565v183h323l-110 200h-213v182h112l-112 205h360l238 -428l237 428h361l-111 -205h111v-182h-211l-111 -200h322v-183h-422v-565h-354v565h-420z" />
<glyph unicode="&#xa6;" horiz-adv-x="1251" d="M502 -276v733h250v-733h-250zM502 692v733h250v-733h-250z" />
<glyph unicode="&#xa7;" horiz-adv-x="1024" d="M98 485q0 86 37 160q39 78 121 148q-104 127 -104 237q0 139 100 221t270 82q156 0 242 -68.5t115 -213.5h-271q-14 63 -90 63q-39 0 -65.5 -20.5t-26.5 -49.5q0 -35 25.5 -60.5t111.5 -72.5q207 -119 271 -196q82 -98 81 -232q0 -195 -159 -317q61 -63 83.5 -113.5 t22.5 -118.5q0 -143 -98 -227t-266 -84q-318 0 -359 289h271q18 -66 90 -66q39 0 65.5 21.5t26.5 52.5q0 25 -25 53q-29 25 -110 72q-117 68 -193 127q-14 12 -53 47q-113 119 -113 266zM365 526q0 -68 65 -120q47 -39 156 -105q27 27 45 51q25 33 24 86q0 47 -40 90.5 t-142 106.5l-41 24q-68 -57 -67 -133z" />
<glyph unicode="&#xa8;" horiz-adv-x="681" d="M-20 1178q0 57 38.5 97t96 40t96.5 -40t39 -97q0 -55 -39 -95.5t-96.5 -40.5t-96 40.5t-38.5 95.5zM432 1178q0 57 39 97t96.5 40t96 -40t38.5 -97q0 -55 -38.5 -95.5t-96 -40.5t-96.5 40.5t-39 95.5z" />
<glyph unicode="&#xa9;" horiz-adv-x="1642" d="M57 727q0 317 223.5 540.5t541 223.5t540.5 -223.5t223 -540.5q0 -315 -224 -538.5t-539.5 -223.5t-540 223.5t-224.5 538.5zM205 727q0 -254 180 -434t436 -180t436.5 180t180.5 434q0 256 -180.5 436t-436.5 180t-436 -180t-180 -436zM410 729q0 186 117.5 307 t299.5 121q143 0 242.5 -74.5t126.5 -201.5l-197 -31q-37 160 -186 160q-84 0 -132 -74t-48 -203q0 -168 61 -235q49 -55 127 -56q137 0 178 193l205 -49q-88 -289 -377 -289q-186 0 -301.5 119t-115.5 313z" />
<glyph unicode="&#xaa;" horiz-adv-x="811" d="M47 1057q0 133 81 225t200 92q106 0 194 -94v74h217v-596h-215v76h-4q-72 -96 -188 -97q-121 0 -203 91.5t-82 228.5zM279 1057q0 -55 39.5 -95t95.5 -40q57 0 96 38.5t39 96.5q0 53 -40 94t-91 41h-4q-55 -4 -95 -43t-40 -92z" />
<glyph unicode="&#xab;" d="M55 551l181 520h356l-180 -518l180 -518h-354zM641 553l182 518h353l-177 -518l181 -518h-357z" />
<glyph unicode="&#xac;" horiz-adv-x="1366" d="M121 809v248h1124v-735h-248v487h-876z" />
<glyph unicode="&#xad;" horiz-adv-x="897" d="M109 293v338h677v-338h-677z" />
<glyph unicode="&#xae;" horiz-adv-x="1642" d="M57 727q0 317 223.5 540.5t541 223.5t540.5 -223.5t223 -540.5q0 -315 -224 -538.5t-539.5 -223.5t-540 223.5t-224.5 538.5zM205 727q0 -254 180 -434t436 -180t436.5 180t180.5 434q0 256 -180.5 436t-436.5 180t-436 -180t-180 -436zM475 319v818h365q295 0 295 -234 q0 -178 -222 -223v-4q49 -16 80 -47q39 -41 142 -226l45 -84h-240l-31 60q-82 168 -127 221q-39 43 -80 43q-14 0 -24 -2v-322h-203zM678 791h88q160 0 160 102t-152 102h-96v-204z" />
<glyph unicode="&#xaf;" horiz-adv-x="681" d="M18 1083v217h646v-217h-646z" />
<glyph unicode="&#xb0;" horiz-adv-x="819" d="M123 1208q0 117 84 200t202.5 83t202.5 -83t84 -202t-84 -202.5t-202.5 -83.5t-202.5 84.5t-84 203.5zM307 1206q0 -41 30 -70.5t73 -29.5q41 0 70.5 29.5t29.5 72.5q0 41 -29.5 71t-70.5 30q-43 0 -73 -30t-30 -73z" />
<glyph unicode="&#xb1;" horiz-adv-x="1366" d="M121 -66v248h1124v-248h-1124zM121 743v248h438v439h248v-439h438v-248h-438v-438h-248v438h-438z" />
<glyph unicode="&#xb2;" horiz-adv-x="897" d="M94 1051q2 84 25 139q18 47 53 82q98 94 291 94q147 0 243.5 -73.5t96.5 -188.5q0 -70 -39 -135.5t-143 -169.5l-54 -54h240v-198h-686l51 49l49 49q193 186 260.5 273.5t67.5 146.5q0 43 -28.5 70.5t-74.5 27.5q-110 1 -116 -112h-236z" />
<glyph unicode="&#xb3;" horiz-adv-x="897" d="M72 834h264q16 -102 115 -103q51 0 80.5 21.5t29.5 58.5q0 90 -137 90h-18v162q66 2 92 17.5t26 49.5q0 27 -21.5 43.5t-58.5 16.5q-73 0 -96 -70h-225q31 246 330 246q139 0 219 -55.5t80 -153.5q0 -109 -101 -158v-4q82 -16 127 -68.5t45 -127.5q0 -117 -100 -192 t-256 -75q-274 0 -363 179q-23 41 -32 123z" />
<glyph unicode="&#xb4;" horiz-adv-x="681" d="M164 1047l168 299h350l-324 -299h-194z" />
<glyph unicode="&#xb6;" horiz-adv-x="1138" d="M2 1053q0 109 44 198.5t120 139.5q76 51 137.5 63t233.5 12h596v-262h-113v-1607h-238v1607h-143v-1607h-244v1046q-186 14 -289.5 120.5t-103.5 289.5z" />
<glyph unicode="&#xb7;" horiz-adv-x="681" d="M119 672q0 94 65.5 159.5t159.5 65.5t159.5 -65.5t65.5 -159.5t-65.5 -160t-159.5 -66t-159.5 66t-65.5 160z" />
<glyph unicode="&#xb8;" horiz-adv-x="681" d="M18 -283q66 -12 140 -16q29 -2 82 -2q147 0 147 82q0 72 -106 72q-72 -1 -164 -19l28 119q90 23 179 22q299 0 299 -198q0 -33 -17.5 -72t-42.5 -59q-82 -76 -295 -76q-84 0 -198 16q-2 0 -20.5 3t-31.5 5v123z" />
<glyph unicode="&#xb9;" horiz-adv-x="897" d="M176 1137v217h410v-809h-246v592h-164z" />
<glyph unicode="&#xba;" horiz-adv-x="811" d="M55 1044q0 139 100.5 234.5t245.5 95.5h9q150 -4 250 -94t100 -221q0 -137 -100.5 -230.5t-248 -93.5t-252 90t-104.5 219zM276 1053q0 -53 40 -92t92 -39q53 0 92 38.5t39 94t-38 93.5t-91 38q-55 0 -94.5 -39t-39.5 -94z" />
<glyph unicode="&#xbb;" d="M45 35l178 522l-178 518h354l185 -516l-183 -524h-356zM631 1075h352l186 -518l-182 -522h-354l178 522z" />
<glyph unicode="&#xbc;" horiz-adv-x="2027" d="M123 1137v217h409v-809h-245v592h-164zM375 -201l893 1538h207l-891 -1538h-209zM1120 -31v181l314 464h344v-462h125v-183h-125v-159h-234v159h-424zM1337 152h207v307h-4z" />
<glyph unicode="&#xbd;" horiz-adv-x="2027" d="M135 1137v217h412v-809h-246v592h-166zM373 -201l893 1538h207l-891 -1538h-209zM1176 313q2 80 22 136q23 51 55 83q92 96 285 97q152 0 249 -74t97 -188q0 -84 -49 -156q-55 -76 -184 -201h237v-203h-686l49 52q20 18 49 47q193 186 261.5 273t68.5 149 q0 43 -28.5 70.5t-73.5 27.5q-109 0 -117 -113h-235z" />
<glyph unicode="&#xbe;" horiz-adv-x="2027" d="M70 831h264q20 -100 117 -100q49 0 78.5 21.5t29.5 58.5q0 41 -32.5 64.5t-92.5 23.5h-31v162q119 0 119 67q0 59 -78 60q-41 0 -61.5 -14.5t-36.5 -53.5h-225q31 244 330 244q145 0 222 -55.5t77 -159.5q0 -98 -99 -154q80 -16 121 -65q49 -63 49 -135 q0 -113 -101.5 -189t-252.5 -76q-272 0 -365 177q-23 43 -32 124zM473 -201l893 1538h207l-891 -1538h-209zM1174 -31v181l311 464h346v-462h123v-183h-123v-159h-236v159h-421zM1389 152h206v307h-4z" />
<glyph unicode="&#xbf;" horiz-adv-x="1024" d="M39 158q0 131 80 232.5t213 139.5v119h354v-340q-289 0 -289 -174q0 -47 35 -85t80 -38q51 0 82 39t31 105v14h358q-4 -100 -29 -166q-31 -74 -86 -129q-137 -143 -362 -143q-197 0 -332 122.5t-135 303.5zM293 924q0 90 63.5 152.5t153.5 62.5q88 0 151.5 -63.5 t63.5 -151.5q0 -90 -62.5 -153.5t-152.5 -63.5t-153.5 63.5t-63.5 153.5z" />
<glyph unicode="&#xc0;" horiz-adv-x="1472" d="M29 0l469 1335h467l469 -1335h-334l-84 236h-570l-81 -236h-336zM395 1752h348l164 -299h-193zM537 498h389l-193 551h-4z" />
<glyph unicode="&#xc1;" horiz-adv-x="1472" d="M29 0l469 1335h467l469 -1335h-334l-84 236h-570l-81 -236h-336zM537 498h389l-193 551h-4zM559 1453l168 299h350l-324 -299h-194z" />
<glyph unicode="&#xc2;" horiz-adv-x="1472" d="M29 0l469 1335h467l469 -1335h-334l-84 236h-570l-81 -236h-336zM366 1453l230 284h288l222 -284h-248l-121 151l-123 -151h-248zM537 498h389l-193 551h-4z" />
<glyph unicode="&#xc3;" horiz-adv-x="1472" d="M29 0l469 1335h467l469 -1335h-334l-84 236h-570l-81 -236h-336zM375 1491q0 102 56 168t144 66q61 0 187 -53q78 -33 112 -33q62 0 64 86h157q2 -16 2 -43q0 -106 -55 -171t-145 -65q-59 0 -195 54q-80 33 -108 32q-59 0 -62 -82h-155q-2 16 -2 41zM537 498h389 l-193 551h-4z" />
<glyph unicode="&#xc4;" horiz-adv-x="1472" d="M29 0l469 1335h467l469 -1335h-334l-84 236h-570l-81 -236h-336zM375 1584q0 57 38.5 97t96 40t96.5 -40t39 -97q0 -55 -39 -95.5t-96.5 -40.5t-96 40.5t-38.5 95.5zM537 498h389l-193 551h-4zM827 1584q0 57 39 97t96.5 40t96 -40t38.5 -97q0 -55 -38.5 -95.5t-96 -40.5 t-96.5 40.5t-39 95.5z" />
<glyph unicode="&#xc5;" horiz-adv-x="1472" d="M29 0l469 1335h467l469 -1335h-334l-84 236h-570l-81 -236h-336zM495 1661q0 100 70 171t170 71t171 -70.5t71 -171.5q0 -98 -71 -167.5t-169 -69.5q-100 0 -171 69.5t-71 167.5zM537 498h389l-193 551h-4zM633 1663q0 -43 29.5 -72.5t72.5 -29.5t72.5 29.5t29.5 72.5 t-29.5 73t-72.5 30t-72.5 -30t-29.5 -73z" />
<glyph unicode="&#xc6;" horiz-adv-x="1685" d="M12 0l652 1335h927v-307h-366v-205h305v-307h-305v-209h383v-307h-740v352h-327l-172 -352h-357zM668 616h200v410h-4z" />
<glyph unicode="&#xc7;" d="M113 657q0 317 194.5 517t503.5 200q166 0 332 -80v-368q-164 104 -316 104q-150 0 -244 -100.5t-94 -259.5q0 -156 88.5 -249t237.5 -93q138 0 328 98v-365q-203 -98 -350 -98q-291 0 -485.5 197.5t-194.5 496.5zM297 -283q66 -12 140 -16q29 -2 82 -2q147 0 147 82 q0 72 -106 72q-72 -1 -164 -19l28 119q90 23 179 22q299 0 299 -198q0 -33 -17.5 -72t-42.5 -59q-82 -76 -295 -76q-84 0 -198 16q-2 0 -20.5 3t-31.5 5v123z" />
<glyph unicode="&#xc8;" horiz-adv-x="1024" d="M129 0v1335h803v-303h-447v-209h385v-305h-385v-211h461v-307h-817zM172 1752h348l164 -299h-193z" />
<glyph unicode="&#xc9;" horiz-adv-x="1024" d="M129 0v1335h803v-303h-447v-209h385v-305h-385v-211h461v-307h-817zM336 1453l168 299h350l-324 -299h-194z" />
<glyph unicode="&#xca;" horiz-adv-x="1024" d="M129 0v1335h803v-303h-447v-209h385v-305h-385v-211h461v-307h-817zM143 1453l230 284h288l222 -284h-248l-121 151l-123 -151h-248z" />
<glyph unicode="&#xcb;" horiz-adv-x="1024" d="M129 0v1335h803v-303h-447v-209h385v-305h-385v-211h461v-307h-817zM152 1584q0 57 38.5 97t96 40t96.5 -40t39 -97q0 -55 -39 -95.5t-96.5 -40.5t-96 40.5t-38.5 95.5zM604 1584q0 57 39 97t96.5 40t96 -40t38.5 -97q0 -55 -38.5 -95.5t-96 -40.5t-96.5 40.5t-39 95.5z " />
<glyph unicode="&#xcc;" horiz-adv-x="681" d="M0 1752h348l164 -299h-193zM164 0v1335h358v-1335h-358z" />
<glyph unicode="&#xcd;" horiz-adv-x="681" d="M164 0v1335h358v-1335h-358zM164 1453l168 299h350l-324 -299h-194z" />
<glyph unicode="&#xce;" horiz-adv-x="681" d="M-29 1453l230 284h288l222 -284h-248l-121 151l-123 -151h-248zM164 0v1335h358v-1335h-358z" />
<glyph unicode="&#xcf;" horiz-adv-x="681" d="M-20 1584q0 57 38.5 97t96 40t96.5 -40t39 -97q0 -55 -39 -95.5t-96.5 -40.5t-96 40.5t-38.5 95.5zM164 0v1335h358v-1335h-358zM432 1584q0 57 39 97t96.5 40t96 -40t38.5 -97q0 -55 -38.5 -95.5t-96 -40.5t-96.5 40.5t-39 95.5z" />
<glyph unicode="&#xd0;" horiz-adv-x="1366" d="M51 590v155h80v588h571q262 0 431.5 -184t169.5 -473q0 -303 -169 -489.5t-444 -186.5h-559v590h-80zM485 315h88q186 0 267.5 81t81.5 268q0 184 -84 269t-267 85h-86v-273h226v-155h-226v-275z" />
<glyph unicode="&#xd1;" horiz-adv-x="1579" d="M117 0v1335h352l623 -815h4v815h358v-1335h-354l-621 811h-4v-811h-358zM429 1491q0 102 56 168t144 66q61 0 187 -53q78 -33 112 -33q62 0 64 86h157q2 -16 2 -43q0 -106 -55 -171t-145 -65q-59 0 -195 54q-80 33 -108 32q-59 0 -62 -82h-155q-2 16 -2 41z" />
<glyph unicode="&#xd2;" horiz-adv-x="1685" d="M98 670q0 311 207 507.5t533 196.5h16q332 -12 531.5 -201.5t199.5 -492.5q0 -319 -209 -518t-549 -199q-319 0 -524 198.5t-205 508.5zM473 680q0 -160 106.5 -268.5t260.5 -108.5q152 0 259 107.5t107 259.5q0 154 -108 261t-262 107q-150 0 -256.5 -105.5 t-106.5 -252.5zM502 1752h348l164 -299h-193z" />
<glyph unicode="&#xd3;" horiz-adv-x="1685" d="M98 670q0 311 207 507.5t533 196.5h16q332 -12 531.5 -201.5t199.5 -492.5q0 -319 -209 -518t-549 -199q-319 0 -524 198.5t-205 508.5zM473 680q0 -160 106.5 -268.5t260.5 -108.5q152 0 259 107.5t107 259.5q0 154 -108 261t-262 107q-150 0 -256.5 -105.5 t-106.5 -252.5zM666 1453l168 299h350l-324 -299h-194z" />
<glyph unicode="&#xd4;" horiz-adv-x="1685" d="M98 670q0 311 207 507.5t533 196.5h16q332 -12 531.5 -201.5t199.5 -492.5q0 -319 -209 -518t-549 -199q-319 0 -524 198.5t-205 508.5zM473 680q0 -160 106.5 -268.5t260.5 -108.5q152 0 259 107.5t107 259.5q0 154 -108 261t-262 107q-150 0 -256.5 -105.5 t-106.5 -252.5zM473 1453l230 284h288l222 -284h-248l-121 151l-123 -151h-248z" />
<glyph unicode="&#xd5;" horiz-adv-x="1685" d="M98 670q0 311 207 507.5t533 196.5h16q332 -12 531.5 -201.5t199.5 -492.5q0 -319 -209 -518t-549 -199q-319 0 -524 198.5t-205 508.5zM473 680q0 -160 106.5 -268.5t260.5 -108.5q152 0 259 107.5t107 259.5q0 154 -108 261t-262 107q-150 0 -256.5 -105.5 t-106.5 -252.5zM482 1491q0 102 56 168t144 66q61 0 187 -53q78 -33 112 -33q62 0 64 86h157q2 -16 2 -43q0 -106 -55 -171t-145 -65q-59 0 -195 54q-80 33 -108 32q-59 0 -62 -82h-155q-2 16 -2 41z" />
<glyph unicode="&#xd6;" horiz-adv-x="1685" d="M98 670q0 311 207 507.5t533 196.5h16q332 -12 531.5 -201.5t199.5 -492.5q0 -319 -209 -518t-549 -199q-319 0 -524 198.5t-205 508.5zM473 680q0 -160 106.5 -268.5t260.5 -108.5q152 0 259 107.5t107 259.5q0 154 -108 261t-262 107q-150 0 -256.5 -105.5 t-106.5 -252.5zM482 1584q0 57 38.5 97t96 40t96.5 -40t39 -97q0 -55 -39 -95.5t-96.5 -40.5t-96 40.5t-38.5 95.5zM934 1584q0 57 39 97t96.5 40t96 -40t38.5 -97q0 -55 -38.5 -95.5t-96 -40.5t-96.5 40.5t-39 95.5z" />
<glyph unicode="&#xd7;" horiz-adv-x="1366" d="M147 1040l177 174l360 -360l360 360l177 -174l-361 -362l359 -356l-177 -175l-356 357l-358 -357l-176 175l358 356z" />
<glyph unicode="&#xd8;" horiz-adv-x="1685" d="M94 664q0 322 209 517t551 195q100 0 197 -24q100 -27 209 -82l139 157l117 -100l-134 -151q201 -195 201 -498q-2 -319 -210 -517t-544 -198q-154 0 -270 41q-51 20 -137 64l-164 -183l-113 101l154 178q-106 109 -152 215q-53 131 -53 285zM475 684q0 -129 76 -229 l463 534q-94 47 -176 47q-150 0 -256.5 -103.5t-106.5 -248.5zM664 350q102 -45 180 -45q147 0 251.5 107.5t104.5 259.5q0 94 -37 162q-4 8 -33 53z" />
<glyph unicode="&#xd9;" horiz-adv-x="1366" d="M90 510v825h356v-764q0 -139 59.5 -212.5t172.5 -73.5q102 0 164.5 71.5t62.5 190.5v788h357v-786q0 -262 -160 -424t-418 -162q-260 0 -427 153.5t-167 393.5zM342 1752h348l164 -299h-193z" />
<glyph unicode="&#xda;" horiz-adv-x="1366" d="M90 510v825h356v-764q0 -139 59.5 -212.5t172.5 -73.5q102 0 164.5 71.5t62.5 190.5v788h357v-786q0 -262 -160 -424t-418 -162q-260 0 -427 153.5t-167 393.5zM506 1453l168 299h350l-324 -299h-194z" />
<glyph unicode="&#xdb;" horiz-adv-x="1366" d="M90 510v825h356v-764q0 -139 59.5 -212.5t172.5 -73.5q102 0 164.5 71.5t62.5 190.5v788h357v-786q0 -262 -160 -424t-418 -162q-260 0 -427 153.5t-167 393.5zM313 1453l230 284h288l222 -284h-248l-121 151l-123 -151h-248z" />
<glyph unicode="&#xdc;" horiz-adv-x="1366" d="M90 510v825h356v-764q0 -139 59.5 -212.5t172.5 -73.5q102 0 164.5 71.5t62.5 190.5v788h357v-786q0 -262 -160 -424t-418 -162q-260 0 -427 153.5t-167 393.5zM322 1584q0 57 38.5 97t96 40t96.5 -40t39 -97q0 -55 -39 -95.5t-96.5 -40.5t-96 40.5t-38.5 95.5zM774 1584 q0 57 39 97t96.5 40t96 -40t38.5 -97q0 -55 -38.5 -95.5t-96 -40.5t-96.5 40.5t-39 95.5z" />
<glyph unicode="&#xdd;" d="M14 1335h363l237 -428l240 428h358l-419 -764v-571h-357v571zM443 1453l168 299h350l-324 -299h-194z" />
<glyph unicode="&#xde;" d="M133 0v1331h354v-221h254q197 0 309.5 -114.5t112.5 -319.5q0 -221 -111.5 -337t-326.5 -116h-238v-223h-354zM487 532h138q74 0 116.5 36t42.5 99.5t-38.5 104.5t-96.5 41h-162v-281z" />
<glyph unicode="&#xdf;" d="M104 -2v907q0 131 78 242q41 59 105 102q129 84 346 84q231 0 362 -93t131 -257q0 -131 -102 -207q-51 -39 -96 -57.5t-140 -38.5v-4q119 -12 184.5 -37t112.5 -72q90 -90 91 -239q0 -164 -115 -263.5t-307 -99.5q-90 0 -219 35v252q86 -31 141 -31q72 0 121 47t49 117 q0 76 -59.5 121t-159.5 45q-18 0 -31 -2v258q117 2 166 33.5t49 105.5q0 61 -44 95t-122 34q-205 0 -205 -219v-858h-336z" />
<glyph unicode="&#xe0;" d="M49 467q0 201 126 341t306 140q168 0 301 -141v113h338v-920h-338v115q-131 -143 -299 -144q-186 0 -310 141.5t-124 354.5zM279 1346h348l164 -299h-193zM408 461q0 -86 60 -145.5t146 -59.5t146.5 60.5t60.5 144.5q0 86 -60.5 146.5t-146.5 60.5q-84 0 -145 -61.5 t-61 -145.5z" />
<glyph unicode="&#xe1;" d="M49 467q0 201 126 341t306 140q168 0 301 -141v113h338v-920h-338v115q-131 -143 -299 -144q-186 0 -310 141.5t-124 354.5zM408 461q0 -86 60 -145.5t146 -59.5t146.5 60.5t60.5 144.5q0 86 -60.5 146.5t-146.5 60.5q-84 0 -145 -61.5t-61 -145.5zM443 1047l168 299h350 l-324 -299h-194z" />
<glyph unicode="&#xe2;" d="M49 467q0 201 126 341t306 140q168 0 301 -141v113h338v-920h-338v115q-131 -143 -299 -144q-186 0 -310 141.5t-124 354.5zM250 1047l230 284h288l222 -284h-248l-121 151l-123 -151h-248zM408 461q0 -86 60 -145.5t146 -59.5t146.5 60.5t60.5 144.5q0 86 -60.5 146.5 t-146.5 60.5q-84 0 -145 -61.5t-61 -145.5z" />
<glyph unicode="&#xe3;" d="M49 467q0 201 126 341t306 140q168 0 301 -141v113h338v-920h-338v115q-131 -143 -299 -144q-186 0 -310 141.5t-124 354.5zM259 1085q0 102 56 168t144 66q61 0 187 -53q78 -33 112 -33q62 0 64 86h157q2 -16 2 -43q0 -106 -55 -171t-145 -65q-59 0 -195 54 q-80 33 -108 32q-59 0 -62 -82h-155q-2 16 -2 41zM408 461q0 -86 60 -145.5t146 -59.5t146.5 60.5t60.5 144.5q0 86 -60.5 146.5t-146.5 60.5q-84 0 -145 -61.5t-61 -145.5z" />
<glyph unicode="&#xe4;" d="M49 467q0 201 126 341t306 140q168 0 301 -141v113h338v-920h-338v115q-131 -143 -299 -144q-186 0 -310 141.5t-124 354.5zM259 1178q0 57 38.5 97t96 40t96.5 -40t39 -97q0 -55 -39 -95.5t-96.5 -40.5t-96 40.5t-38.5 95.5zM408 461q0 -86 60 -145.5t146 -59.5 t146.5 60.5t60.5 144.5q0 86 -60.5 146.5t-146.5 60.5q-84 0 -145 -61.5t-61 -145.5zM711 1178q0 57 39 97t96.5 40t96 -40t38.5 -97q0 -55 -38.5 -95.5t-96 -40.5t-96.5 40.5t-39 95.5z" />
<glyph unicode="&#xe5;" d="M49 467q0 201 126 341t306 140q168 0 301 -141v113h338v-920h-338v115q-131 -143 -299 -144q-186 0 -310 141.5t-124 354.5zM379 1255q0 100 70 171t170 71t171 -70.5t71 -171.5q0 -98 -71 -167.5t-169 -69.5q-100 0 -171 69.5t-71 167.5zM408 461q0 -86 60 -145.5 t146 -59.5t146.5 60.5t60.5 144.5q0 86 -60.5 146.5t-146.5 60.5q-84 0 -145 -61.5t-61 -145.5zM517 1257q0 -43 29.5 -72.5t72.5 -29.5t72.5 29.5t29.5 72.5t-29.5 73t-72.5 30t-72.5 -30t-29.5 -73z" />
<glyph unicode="&#xe6;" horiz-adv-x="2027" d="M76 465q0 209 129 346t325 137q195 0 308 -149h4v121h274v-115h4q59 76 136 109.5t192 33.5q160 0 272.5 -66.5t165.5 -191.5q45 -104 45 -289h-764q23 -225 228 -225q117 0 176 109h346q-29 -92 -72 -144q-143 -172 -393 -172q-113 0 -189.5 33t-148.5 111v-109h-276 v111q-63 -59 -105 -86q-88 -53 -221 -54q-188 0 -312 138.5t-124 351.5zM434 459q0 -90 62.5 -147.5t159 -57.5t157.5 59.5t61 153.5q0 86 -63.5 146.5t-153.5 60.5q-94 0 -158.5 -62.5t-64.5 -152.5zM1176 588h434q-39 172 -215 172q-182 0 -219 -172z" />
<glyph unicode="&#xe7;" horiz-adv-x="897" d="M68 453q0 152 77.5 276.5t206.5 177.5q94 41 228 41q119 0 243 -47v-305l-18 6q-111 33 -178 33q-84 0 -141.5 -49t-57.5 -119q0 -72 57.5 -122t139 -50t198.5 51v-301q-150 -74 -268 -74q-223 0 -355 131t-132 351zM127 -283q66 -12 140 -16q29 -2 82 -2q147 0 147 82 q0 72 -106 72q-72 -1 -164 -19l28 119q90 23 179 22q299 0 299 -198q0 -33 -17.5 -72t-42.5 -59q-82 -76 -295 -76q-84 0 -198 16q-2 0 -20.5 3t-31.5 5v123z" />
<glyph unicode="&#xe8;" horiz-adv-x="1241" d="M72 465q0 225 150.5 355t410.5 130q164 0 292 -76.5t179 -205.5q37 -90 37 -240v-27h-742q6 -98 64.5 -159.5t146.5 -61.5q113 1 168 107h355q-29 -86 -80 -144q-158 -174 -432 -174q-256 0 -402.5 133.5t-146.5 362.5zM281 1346h348l164 -299h-193zM408 590h405 q-10 74 -66.5 124t-132.5 50q-84 0 -141 -48t-65 -126z" />
<glyph unicode="&#xe9;" horiz-adv-x="1241" d="M72 465q0 225 150.5 355t410.5 130q164 0 292 -76.5t179 -205.5q37 -90 37 -240v-27h-742q6 -98 64.5 -159.5t146.5 -61.5q113 1 168 107h355q-29 -86 -80 -144q-158 -174 -432 -174q-256 0 -402.5 133.5t-146.5 362.5zM408 590h405q-10 74 -66.5 124t-132.5 50 q-84 0 -141 -48t-65 -126zM445 1047l168 299h350l-324 -299h-194z" />
<glyph unicode="&#xea;" horiz-adv-x="1241" d="M72 465q0 225 150.5 355t410.5 130q164 0 292 -76.5t179 -205.5q37 -90 37 -240v-27h-742q6 -98 64.5 -159.5t146.5 -61.5q113 1 168 107h355q-29 -86 -80 -144q-158 -174 -432 -174q-256 0 -402.5 133.5t-146.5 362.5zM252 1047l230 284h288l222 -284h-248l-121 151 l-123 -151h-248zM408 590h405q-10 74 -66.5 124t-132.5 50q-84 0 -141 -48t-65 -126z" />
<glyph unicode="&#xeb;" horiz-adv-x="1241" d="M72 465q0 225 150.5 355t410.5 130q164 0 292 -76.5t179 -205.5q37 -90 37 -240v-27h-742q6 -98 64.5 -159.5t146.5 -61.5q113 1 168 107h355q-29 -86 -80 -144q-158 -174 -432 -174q-256 0 -402.5 133.5t-146.5 362.5zM261 1178q0 57 38.5 97t96 40t96.5 -40t39 -97 q0 -55 -39 -95.5t-96.5 -40.5t-96 40.5t-38.5 95.5zM408 590h405q-10 74 -66.5 124t-132.5 50q-84 0 -141 -48t-65 -126zM713 1178q0 57 39 97t96.5 40t96 -40t38.5 -97q0 -55 -38.5 -95.5t-96 -40.5t-96.5 40.5t-39 95.5z" />
<glyph unicode="&#xec;" horiz-adv-x="555" d="M-63 1346h348l164 -299h-193zM109 0v920h337v-920h-337z" />
<glyph unicode="&#xed;" horiz-adv-x="555" d="M101 1047l168 299h350l-324 -299h-194zM109 0v920h337v-920h-337z" />
<glyph unicode="&#xee;" horiz-adv-x="555" d="M-92 1047l230 284h288l222 -284h-248l-121 151l-123 -151h-248zM109 0v920h337v-920h-337z" />
<glyph unicode="&#xef;" horiz-adv-x="555" d="M-83 1178q0 57 38.5 97t96 40t96.5 -40t39 -97q0 -55 -39 -95.5t-96.5 -40.5t-96 40.5t-38.5 95.5zM109 0v920h337v-920h-337zM369 1178q0 57 39 97t96.5 40t96 -40t38.5 -97q0 -55 -38.5 -95.5t-96 -40.5t-96.5 40.5t-39 95.5z" />
<glyph unicode="&#xf0;" d="M100 455q0 195 132.5 333t318.5 138q104 0 203 -58l4 4q-66 111 -178 199l-238 -102l-37 96l178 80q-53 39 -123 69l170 121q96 -35 191 -88l211 90l41 -96l-150 -63q106 -84 156.5 -141.5t99.5 -153.5q90 -170 90 -357q0 -248 -149.5 -399.5t-392.5 -151.5 q-223 0 -375 139.5t-152 340.5zM430 459q0 -82 58.5 -141.5t140.5 -59.5h4q84 2 141 60.5t57 142.5q0 86 -57 146.5t-139 60.5q-86 0 -145.5 -60.5t-59.5 -148.5z" />
<glyph unicode="&#xf1;" d="M100 0v920h338v-123q227 158 391 157q123 0 209 -87t86 -210v-657h-338v528q0 68 -47 113t-118 45q-84 0 -133.5 -47t-49.5 -127v-512h-338zM259 1085q0 102 56 168t144 66q61 0 187 -53q78 -33 112 -33q62 0 64 86h157q2 -16 2 -43q0 -106 -55 -171t-145 -65 q-59 0 -195 54q-80 33 -108 32q-59 0 -62 -82h-155q-2 16 -2 41z" />
<glyph unicode="&#xf2;" d="M76 444q0 215 152.5 360.5t377.5 145.5h12q233 -6 386 -144t153 -345q0 -205 -155.5 -348.5t-381 -143.5t-385 139.5t-159.5 335.5zM279 1346h348l164 -299h-193zM416 459q0 -82 59.5 -141.5t138.5 -59.5q86 0 144.5 60.5t58.5 148.5q0 78 -59 137.5t-137 59.5 q-84 0 -144.5 -59.5t-60.5 -145.5z" />
<glyph unicode="&#xf3;" d="M76 444q0 215 152.5 360.5t377.5 145.5h12q233 -6 386 -144t153 -345q0 -205 -155.5 -348.5t-381 -143.5t-385 139.5t-159.5 335.5zM416 459q0 -82 59.5 -141.5t138.5 -59.5q86 0 144.5 60.5t58.5 148.5q0 78 -59 137.5t-137 59.5q-84 0 -144.5 -59.5t-60.5 -145.5z M443 1047l168 299h350l-324 -299h-194z" />
<glyph unicode="&#xf4;" d="M76 444q0 215 152.5 360.5t377.5 145.5h12q233 -6 386 -144t153 -345q0 -205 -155.5 -348.5t-381 -143.5t-385 139.5t-159.5 335.5zM250 1047l230 284h288l222 -284h-248l-121 151l-123 -151h-248zM416 459q0 -82 59.5 -141.5t138.5 -59.5q86 0 144.5 60.5t58.5 148.5 q0 78 -59 137.5t-137 59.5q-84 0 -144.5 -59.5t-60.5 -145.5z" />
<glyph unicode="&#xf5;" d="M76 444q0 215 152.5 360.5t377.5 145.5h12q233 -6 386 -144t153 -345q0 -205 -155.5 -348.5t-381 -143.5t-385 139.5t-159.5 335.5zM259 1085q0 102 56 168t144 66q61 0 187 -53q78 -33 112 -33q62 0 64 86h157q2 -16 2 -43q0 -106 -55 -171t-145 -65q-59 0 -195 54 q-80 33 -108 32q-59 0 -62 -82h-155q-2 16 -2 41zM416 459q0 -82 59.5 -141.5t138.5 -59.5q86 0 144.5 60.5t58.5 148.5q0 78 -59 137.5t-137 59.5q-84 0 -144.5 -59.5t-60.5 -145.5z" />
<glyph unicode="&#xf6;" d="M76 444q0 215 152.5 360.5t377.5 145.5h12q233 -6 386 -144t153 -345q0 -205 -155.5 -348.5t-381 -143.5t-385 139.5t-159.5 335.5zM259 1178q0 57 38.5 97t96 40t96.5 -40t39 -97q0 -55 -39 -95.5t-96.5 -40.5t-96 40.5t-38.5 95.5zM416 459q0 -82 59.5 -141.5 t138.5 -59.5q86 0 144.5 60.5t58.5 148.5q0 78 -59 137.5t-137 59.5q-84 0 -144.5 -59.5t-60.5 -145.5zM711 1178q0 57 39 97t96.5 40t96 -40t38.5 -97q0 -55 -38.5 -95.5t-96 -40.5t-96.5 40.5t-39 95.5z" />
<glyph unicode="&#xf7;" horiz-adv-x="1366" d="M121 565v234h1124v-234h-1124zM535 266q0 61 43 105.5t104 44.5t104 -43t43 -105q0 -59 -43 -102t-104 -43t-104 42t-43 101zM535 1104q0 59 43 101t102 42t102 -43t43 -102.5t-43 -102.5t-102 -43t-102 43.5t-43 104.5z" />
<glyph unicode="&#xf8;" d="M80 444q0 219 153.5 362.5t389.5 143.5q125 0 276 -67l102 118l99 -83l-96 -113q82 -86 112 -162q39 -86 39 -180q0 -211 -155.5 -351.5t-387.5 -140.5q-117 0 -196 33q-4 2 -76 33l-98 -109l-97 84l86 101q-80 82 -112 153q-39 86 -39 178zM418 463q-1 -60 28 -101 l248 287q-49 14 -73 15q-82 0 -142.5 -59.5t-60.5 -141.5zM541 272q41 -14 75 -14q82 0 141.5 59.5t59.5 143.5q1 45 -26 98z" />
<glyph unicode="&#xf9;" horiz-adv-x="1130" d="M70 383v537h340v-517q0 -131 157 -131q156 0 156 129v519h338v-549q0 -193 -133 -296.5t-381 -103.5q-219 0 -348 112t-129 300zM225 1346h348l164 -299h-193z" />
<glyph unicode="&#xfa;" horiz-adv-x="1130" d="M70 383v537h340v-517q0 -131 157 -131q156 0 156 129v519h338v-549q0 -193 -133 -296.5t-381 -103.5q-219 0 -348 112t-129 300zM389 1047l168 299h350l-324 -299h-194z" />
<glyph unicode="&#xfb;" horiz-adv-x="1130" d="M70 383v537h340v-517q0 -131 157 -131q156 0 156 129v519h338v-549q0 -193 -133 -296.5t-381 -103.5q-219 0 -348 112t-129 300zM196 1047l230 284h288l222 -284h-248l-121 151l-123 -151h-248z" />
<glyph unicode="&#xfc;" horiz-adv-x="1130" d="M70 383v537h340v-517q0 -131 157 -131q156 0 156 129v519h338v-549q0 -193 -133 -296.5t-381 -103.5q-219 0 -348 112t-129 300zM205 1178q0 57 38.5 97t96 40t96.5 -40t39 -97q0 -55 -39 -95.5t-96.5 -40.5t-96 40.5t-38.5 95.5zM657 1178q0 57 39 97t96.5 40t96 -40 t38.5 -97q0 -55 -38.5 -95.5t-96 -40.5t-96.5 40.5t-39 95.5z" />
<glyph unicode="&#xfd;" d="M12 920h344l258 -478l256 478h342l-694 -1299h-344l268 496zM443 1047l168 299h350l-324 -299h-194z" />
<glyph unicode="&#xfe;" d="M129 -375v1712h330v-542q72 84 143.5 119.5t167.5 35.5q176 0 302 -143t126 -346q0 -201 -126 -343.5t-302 -142.5q-166 0 -303 150v-500h-338zM434 463q0 -84 59.5 -143.5t143.5 -59.5t142.5 59.5t56.5 143.5q0 84 -58.5 143.5t-140.5 59.5q-84 0 -143.5 -59.5 t-59.5 -143.5z" />
<glyph unicode="&#xff;" d="M12 920h344l258 -478l256 478h342l-694 -1299h-344l268 496zM259 1178q0 57 38.5 97t96 40t96.5 -40t39 -97q0 -55 -39 -95.5t-96.5 -40.5t-96 40.5t-38.5 95.5zM711 1178q0 57 39 97t96.5 40t96 -40t38.5 -97q0 -55 -38.5 -95.5t-96 -40.5t-96.5 40.5t-39 95.5z" />
<glyph unicode="&#x152;" horiz-adv-x="1685" d="M68 684q0 272 202.5 459.5t497.5 187.5h819v-301h-411v-211h352v-303h-352v-211h426v-305l-783 -2q-340 0 -545.5 188.5t-205.5 497.5zM451 672q0 -152 94 -241t254 -89h24v653q-115 -2 -178 -28q-61 -25 -104 -68q-90 -86 -90 -227z" />
<glyph unicode="&#x153;" horiz-adv-x="2052" d="M82 451q0 219 153.5 361t391.5 142q221 0 370 -151q61 66 138 98q121 51 270 51q236 0 374 -130t138 -351v-70h-748q20 -115 73.5 -169t148.5 -54q57 0 101 30t62 77h353q-31 -92 -76 -146q-66 -72 -156 -112q-125 -57 -284 -58q-143 0 -248 43q-74 31 -150 107 q-141 -145 -366 -146q-227 0 -386 139.5t-159 338.5zM416 459q0 -84 60.5 -142.5t144.5 -58.5q94 0 153.5 56.5t59.5 146.5q0 88 -57.5 145.5t-145.5 57.5q-92 0 -153.5 -58.5t-61.5 -146.5zM1178 588h417q-47 176 -210.5 176t-206.5 -176z" />
<glyph unicode="&#x178;" d="M14 1335h363l237 -428l240 428h358l-419 -764v-571h-357v571zM259 1584q0 57 38.5 97t96 40t96.5 -40t39 -97q0 -55 -39 -95.5t-96.5 -40.5t-96 40.5t-38.5 95.5zM711 1584q0 57 39 97t96.5 40t96 -40t38.5 -97q0 -55 -38.5 -95.5t-96 -40.5t-96.5 40.5t-39 95.5z" />
<glyph unicode="&#x2c6;" horiz-adv-x="681" d="M-29 1047l230 284h288l222 -284h-248l-121 151l-123 -151h-248z" />
<glyph unicode="&#x2dc;" horiz-adv-x="681" d="M-20 1085q0 102 56 168t144 66q61 0 187 -53q78 -33 112 -33q62 0 64 86h157q2 -16 2 -43q0 -106 -55 -171t-145 -65q-59 0 -195 54q-80 33 -108 32q-59 0 -62 -82h-155q-2 16 -2 41z" />
<glyph unicode="&#x2000;" horiz-adv-x="951" />
<glyph unicode="&#x2001;" horiz-adv-x="1903" />
<glyph unicode="&#x2002;" horiz-adv-x="951" />
<glyph unicode="&#x2003;" horiz-adv-x="1903" />
<glyph unicode="&#x2004;" horiz-adv-x="634" />
<glyph unicode="&#x2005;" horiz-adv-x="475" />
<glyph unicode="&#x2006;" horiz-adv-x="317" />
<glyph unicode="&#x2007;" horiz-adv-x="317" />
<glyph unicode="&#x2008;" horiz-adv-x="237" />
<glyph unicode="&#x2009;" horiz-adv-x="380" />
<glyph unicode="&#x200a;" horiz-adv-x="105" />
<glyph unicode="&#x2010;" horiz-adv-x="897" d="M109 293v338h677v-338h-677z" />
<glyph unicode="&#x2011;" horiz-adv-x="897" d="M109 293v338h677v-338h-677z" />
<glyph unicode="&#x2012;" horiz-adv-x="897" d="M109 293v338h677v-338h-677z" />
<glyph unicode="&#x2013;" horiz-adv-x="1024" d="M-16 395v250h1056v-250h-1056z" />
<glyph unicode="&#x2014;" horiz-adv-x="2048" d="M-16 395v250h2078v-250h-2078z" />
<glyph unicode="&#x2018;" horiz-adv-x="555" d="M121 682v281q0 176 186 395l94 -109q-96 -115 -120 -188q-10 -27 -13 -60h172v-319h-319z" />
<glyph unicode="&#x2019;" horiz-adv-x="555" d="M119 1022v321h319v-247q0 -147 -67 -269q-35 -61 -119 -159l-92 104q92 117 119 191q10 27 12 59h-172z" />
<glyph unicode="&#x201a;" horiz-adv-x="575" d="M-4 -229l209 647h377l-314 -647h-272z" />
<glyph unicode="&#x201c;" horiz-adv-x="1024" d="M80 680v281q0 164 186 393l90 -109q-74 -86 -112 -174q-12 -27 -21 -72h176v-319h-319zM621 680v248q0 139 67 260q37 68 117 162l92 -105q-115 -131 -131 -246h172v-319h-317z" />
<glyph unicode="&#x201d;" horiz-adv-x="1024" d="M84 1020v317h319v-256q0 -137 -71 -264q-45 -76 -115 -153l-94 108q68 76 95.5 128t35.5 120h-170zM623 1018v319h319v-280q0 -121 -76 -250q-43 -70 -110 -143l-92 106q117 131 133 248h-174z" />
<glyph unicode="&#x201e;" horiz-adv-x="1024" d="M80 12v316h319v-246q0 -145 -73 -272q-39 -66 -115 -154l-90 108q115 129 129 248h-170zM618 10v318h320v-260q0 -106 -37 -193q-25 -61 -53.5 -104t-95.5 -117l-93 106q74 82 107 156q18 37 29 94h-177z" />
<glyph unicode="&#x2022;" horiz-adv-x="1024" d="M180 723q0 137 97.5 233.5t234.5 96.5t234.5 -96.5t97.5 -233.5t-97.5 -235.5t-234.5 -98.5t-234.5 97.5t-97.5 236.5z" />
<glyph unicode="&#x2026;" horiz-adv-x="2048" d="M117 194.5q0 94.5 65.5 159t157.5 64.5q94 0 159.5 -65.5t65.5 -157.5q0 -94 -65.5 -160t-159.5 -66q-92 0 -157.5 65.5t-65.5 160zM799 196.5q0 94.5 65.5 160t159.5 65.5q92 0 158.5 -65.5t66.5 -160t-66.5 -160t-158.5 -65.5q-94 0 -159.5 65.5t-65.5 160zM1483 199 q0 92 65.5 157.5t157.5 65.5q94 0 159.5 -65.5t65.5 -157.5q0 -94 -65.5 -160t-159.5 -66q-92 0 -157.5 65.5t-65.5 160.5z" />
<glyph unicode="&#x202f;" horiz-adv-x="380" />
<glyph unicode="&#x2039;" horiz-adv-x="681" d="M74 547l182 520h356l-180 -520l180 -516h-356z" />
<glyph unicode="&#x203a;" horiz-adv-x="681" d="M68 31l180 518l-180 518h354l182 -518l-182 -518h-354z" />
<glyph unicode="&#x205f;" horiz-adv-x="475" />
<glyph unicode="&#x2122;" horiz-adv-x="1941" d="M37 1272v194h801v-194h-285v-621h-236v621h-280zM930 651v815h356l113 -446h4l117 446h346v-815h-221v576h-5l-149 -576h-184l-148 576h-4v-576h-225z" />
<glyph unicode="&#x25fc;" horiz-adv-x="921" d="M0 0v922h922v-922h-922z" />
<glyph unicode="&#xfb01;" d="M20 651v269h146v79q0 180 140 279.5t394 99.5q289 0 398 -188q37 -61 59 -170h-340q-8 59 -44 93t-91 34q-170 0 -178 -227h192v-269h-190v-651h-340v651h-146zM825 0v920h338v-920h-338z" />
<glyph unicode="&#xfb02;" d="M20 651v269h146v79q0 178 141.5 278.5t392.5 100.5q223 0 343 -117.5t120 -336.5v-924h-338v948q0 94 -37.5 146.5t-107.5 52.5q-168 0 -174 -227h190v-269h-190v-651h-340v651h-146z" />
</font>
</defs>
</svg>
